<?xml version="1.0" standalone="no"?>
<!DOCTYPE svg PUBLIC "-//W3C//DTD SVG 20010904//EN"
 "http://www.w3.org/TR/2001/REC-SVG-20010904/DTD/svg10.dtd">
<svg version="1.0" xmlns="http://www.w3.org/2000/svg"
 width="512.000000pt" height="512.000000pt" viewBox="0 0 512.000000 512.000000"
 preserveAspectRatio="xMidYMid meet">
<metadata>
Created by potrace 1.14, written by Peter Selinger 2001-2017
</metadata>
<g transform="translate(0.000000,512.000000) scale(0.100000,-0.100000)"
fill="#000000" stroke="none">
<path d="M0 2560 l0 -2560 2560 0 2560 0 0 2560 0 2560 -2560 0 -2560 0 0
-2560z m2776 2001 c413 -85 764 -342 966 -706 86 -157 146 -336 168 -505 5
-41 10 -194 10 -339 0 -247 -1 -266 -20 -296 -22 -36 -73 -65 -115 -65 -42 0
-93 29 -115 65 -18 30 -20 49 -20 246 0 367 -23 504 -119 704 -160 335 -479
571 -851 630 -168 26 -332 15 -503 -36 -334 -99 -636 -392 -745 -725 -55 -166
-79 -371 -51 -427 14 -27 1270 -1287 1284 -1287 5 0 33 23 61 51 l51 51 7 -64
c13 -126 27 -390 21 -396 -6 -6 -382 15 -429 25 l-28 5 56 57 c31 31 56 61 56
66 1 6 -287 296 -639 645 -352 349 -651 654 -665 677 -14 23 -35 70 -47 105
-39 114 -15 378 52 581 34 103 136 297 203 387 232 310 569 510 951 566 124
18 334 11 461 -15z m-356 -931 c91 -5 178 -10 195 -10 l29 0 -56 -57 -56 -58
658 -665 c580 -585 663 -673 692 -730 l33 -65 -1 -170 c-1 -155 -4 -180 -31
-285 -175 -671 -762 -1109 -1443 -1077 -346 17 -654 149 -905 389 -156 149
-261 303 -342 503 -86 210 -105 348 -101 709 l3 256 37 37 c34 33 43 37 92 37
64 1 101 -21 128 -75 16 -30 18 -66 18 -285 0 -279 10 -367 60 -516 128 -382
423 -648 835 -754 54 -14 109 -18 245 -18 160 0 184 2 273 27 138 38 235 80
340 150 204 133 367 336 452 560 57 151 89 385 62 448 -9 21 -263 282 -661
679 l-646 645 -64 -64 -64 -64 -6 54 c-7 73 -26 357 -26 392 0 27 1 28 43 22
23 -3 116 -10 207 -15z"/>
</g>
</svg>
